<svg width="20" height="54" viewBox="0 0 20 54" fill="none" xmlns="http://www.w3.org/2000/svg">
<path d="M18.75 42.3049H16.25C15.9185 42.3049 15.6005 42.4418 15.3661 42.6855C15.1317 42.9292 15 43.2597 15 43.6044C15 43.949 15.1317 44.2795 15.3661 44.5232C15.6005 44.7669 15.9185 44.9038 16.25 44.9038H17.3875C17.127 46.4975 16.3964 47.9677 15.2968 49.1107C14.1972 50.2538 12.7831 51.0133 11.25 51.2841V39.706H12.5C12.8315 39.706 13.1495 39.5691 13.3839 39.3254C13.6183 39.0817 13.75 38.7512 13.75 38.4066C13.75 38.0619 13.6183 37.7314 13.3839 37.4877C13.1495 37.244 12.8315 37.1071 12.5 37.1071H11.25V35.5738C12.084 35.2672 12.7869 34.6641 13.2345 33.8709C13.6821 33.0777 13.8456 32.1455 13.696 31.2391C13.5464 30.3328 13.0934 29.5106 12.4171 28.9178C11.7407 28.3251 10.8846 28 10 28C9.11539 28 8.25926 28.3251 7.58293 28.9178C6.90659 29.5106 6.45359 30.3328 6.30401 31.2391C6.15442 32.1455 6.31786 33.0777 6.76546 33.8709C7.21306 34.6641 7.91598 35.2672 8.75 35.5738V37.1071H7.5C7.16848 37.1071 6.85054 37.244 6.61612 37.4877C6.3817 37.7314 6.25 38.0619 6.25 38.4066C6.25 38.7512 6.3817 39.0817 6.61612 39.3254C6.85054 39.5691 7.16848 39.706 7.5 39.706H8.75V51.2841C7.21694 51.0133 5.80277 50.2538 4.7032 49.1107C3.60362 47.9677 2.87302 46.4975 2.6125 44.9038H3.75C4.08152 44.9038 4.39946 44.7669 4.63388 44.5232C4.8683 44.2795 5 43.949 5 43.6044C5 43.2597 4.8683 42.9292 4.63388 42.6855C4.39946 42.4418 4.08152 42.3049 3.75 42.3049H1.25C0.918479 42.3049 0.600537 42.4418 0.366117 42.6855C0.131696 42.9292 0 43.2597 0 43.6044C0 46.3615 1.05357 49.0056 2.92893 50.9552C4.8043 52.9048 7.34784 54 10 54C12.6522 54 15.1957 52.9048 17.0711 50.9552C18.9464 49.0056 20 46.3615 20 43.6044C20 43.2597 19.8683 42.9292 19.6339 42.6855C19.3995 42.4418 19.0815 42.3049 18.75 42.3049ZM10 33.2088C9.75277 33.2088 9.5111 33.1325 9.30554 32.9898C9.09998 32.847 8.93976 32.644 8.84515 32.4066C8.75054 32.1691 8.72579 31.9079 8.77402 31.6558C8.82225 31.4037 8.9413 31.1722 9.11612 30.9905C9.29093 30.8087 9.51366 30.685 9.75614 30.6348C9.99861 30.5847 10.2499 30.6104 10.4784 30.7088C10.7068 30.8071 10.902 30.9737 11.0393 31.1874C11.1767 31.4011 11.25 31.6523 11.25 31.9093C11.25 32.2539 11.1183 32.5845 10.8839 32.8282C10.6495 33.0719 10.3315 33.2088 10 33.2088Z" fill="white"/>
<g filter="url(#filter0_d_67_64)">
<path d="M12 4.70588C12 5.84423 11.7039 6.82794 11.2781 7.49589C10.8448 8.17549 10.3688 8.41177 10 8.41177C9.6312 8.41177 9.15515 8.17549 8.72191 7.49589C8.29609 6.82794 8 5.84423 8 4.70588C8 3.56754 8.29609 2.58383 8.72191 1.91588C9.15515 1.23627 9.6312 1 10 1C10.3688 1 10.8448 1.23627 11.2781 1.91588C11.7039 2.58383 12 3.56754 12 4.70588Z" stroke="white" stroke-width="2" shape-rendering="crispEdges"/>
</g>
<path d="M12 12.2353C12 13.3736 11.7039 14.3574 11.2781 15.0253C10.8448 15.7049 10.3688 15.9412 10 15.9412C9.6312 15.9412 9.15515 15.7049 8.72191 15.0253C8.29609 14.3574 8 13.3736 8 12.2353C8 11.097 8.29609 10.1132 8.72191 9.4453C9.15515 8.76569 9.6312 8.52942 10 8.52942C10.3688 8.52942 10.8448 8.76569 11.2781 9.4453C11.7039 10.1132 12 11.097 12 12.2353Z" stroke="white" stroke-width="2"/>
<path d="M12 19.7647C12 20.9031 11.7039 21.8868 11.2781 22.5547C10.8448 23.2343 10.3688 23.4706 10 23.4706C9.6312 23.4706 9.15515 23.2343 8.72191 22.5547C8.29609 21.8868 8 20.9031 8 19.7647C8 18.6264 8.29609 17.6427 8.72191 16.9747C9.15515 16.2951 9.6312 16.0588 10 16.0588C10.3688 16.0588 10.8448 16.2951 11.2781 16.9747C11.7039 17.6427 12 18.6264 12 19.7647Z" stroke="white" stroke-width="2"/>
<g filter="url(#filter1_d_67_64)">
<path d="M11.7986 28.7516C11.9276 28.2226 12 27.6282 12 27C12 24.7909 11.1046 23 10 23C8.89543 23 8 24.7909 8 27C8 29.2091 8.89543 31 10 31C10.2744 31 10.5359 30.8895 10.774 30.6894" stroke="white" stroke-width="2"/>
</g>
<defs>
<filter id="filter0_d_67_64" x="3" y="0" width="14" height="17.4118" filterUnits="userSpaceOnUse" color-interpolation-filters="sRGB">
<feFlood flood-opacity="0" result="BackgroundImageFix"/>
<feColorMatrix in="SourceAlpha" type="matrix" values="0 0 0 0 0 0 0 0 0 0 0 0 0 0 0 0 0 0 127 0" result="hardAlpha"/>
<feOffset dy="4"/>
<feGaussianBlur stdDeviation="2"/>
<feComposite in2="hardAlpha" operator="out"/>
<feColorMatrix type="matrix" values="0 0 0 0 0 0 0 0 0 0 0 0 0 0 0 0 0 0 0.25 0"/>
<feBlend mode="normal" in2="BackgroundImageFix" result="effect1_dropShadow_67_64"/>
<feBlend mode="normal" in="SourceGraphic" in2="effect1_dropShadow_67_64" result="shape"/>
</filter>
<filter id="filter1_d_67_64" x="3" y="22" width="14" height="18" filterUnits="userSpaceOnUse" color-interpolation-filters="sRGB">
<feFlood flood-opacity="0" result="BackgroundImageFix"/>
<feColorMatrix in="SourceAlpha" type="matrix" values="0 0 0 0 0 0 0 0 0 0 0 0 0 0 0 0 0 0 127 0" result="hardAlpha"/>
<feOffset dy="4"/>
<feGaussianBlur stdDeviation="2"/>
<feComposite in2="hardAlpha" operator="out"/>
<feColorMatrix type="matrix" values="0 0 0 0 0 0 0 0 0 0 0 0 0 0 0 0 0 0 0.15 0"/>
<feBlend mode="normal" in2="BackgroundImageFix" result="effect1_dropShadow_67_64"/>
<feBlend mode="normal" in="SourceGraphic" in2="effect1_dropShadow_67_64" result="shape"/>
</filter>
</defs>
</svg>
