<svg width="620" height="620" viewBox="0 0 620 620" fill="none" xmlns="http://www.w3.org/2000/svg">
<circle cx="474.395" cy="104.416" r="19.2779" fill="url(#paint0_radial_85_13)"/>
<g filter="url(#filter0_d_85_13)">
<circle cx="340.942" cy="302.431" r="22.6539" fill="url(#paint1_radial_85_13)"/>
<path fill-rule="evenodd" clip-rule="evenodd" d="M383.211 103.916C379.729 105.533 377.016 108.446 375.646 112.032L240.88 448.39C240.12 450.195 239.728 452.135 239.725 454.094C239.722 456.052 240.109 457.991 240.864 459.799C241.619 461.606 242.726 463.246 244.121 464.621C245.516 465.996 247.17 467.078 248.988 467.807C250.806 468.535 252.75 468.892 254.709 468.861C256.667 468.83 258.6 468.41 260.394 467.624C262.188 466.838 263.807 465.704 265.158 464.285C266.508 462.866 267.563 461.193 268.259 459.362L403.024 123.001C404.186 120.255 404.489 117.221 403.892 114.299C403.294 111.377 401.825 108.705 399.678 106.635C397.531 104.565 394.807 103.195 391.865 102.704C388.923 102.214 385.913 102.654 383.211 103.916Z" fill="#0169B0"/>
<path fill-rule="evenodd" clip-rule="evenodd" d="M322.069 137.774C319.361 138.926 317.061 140.864 315.462 143.335C313.863 145.805 313.039 148.697 313.097 151.64C313.155 154.582 314.092 157.44 315.788 159.846C317.483 162.251 319.86 164.096 322.611 165.14L404.737 198.027C406.55 198.844 408.508 199.283 410.496 199.323C412.484 199.363 414.46 199.003 416.305 198.26C418.149 197.517 419.824 196.408 421.229 195.001C422.635 193.595 423.741 191.918 424.482 190.073C425.223 188.228 425.584 186.253 425.542 184.265C425.499 182.277 425.055 180.318 424.237 178.506C423.418 176.693 422.241 175.065 420.778 173.719C419.314 172.373 417.593 171.337 415.719 170.674L333.598 137.722C331.771 136.957 329.809 136.566 327.828 136.575C325.848 136.585 323.889 136.991 322.069 137.774Z" fill="#0169B0"/>
<path d="M147.531 284.197C143.879 282.793 139.819 282.896 136.245 284.486C132.671 286.075 129.875 289.021 128.471 292.672C120.138 313.285 118.607 336.022 124.101 357.567C129.596 379.112 141.829 398.338 159.017 412.442C176.259 426.378 197.542 434.368 219.695 435.223C241.848 436.078 263.684 429.752 281.949 417.186C283.641 416.136 285.103 414.753 286.247 413.122C287.391 411.491 288.193 409.645 288.604 407.696C289.015 405.747 289.027 403.736 288.639 401.782C288.252 399.828 287.472 397.972 286.347 396.327C285.223 394.683 283.777 393.282 282.097 392.212C280.417 391.141 278.538 390.423 276.572 390.098C274.607 389.774 272.596 389.85 270.661 390.324C268.726 390.798 266.909 391.662 265.316 392.858C252.315 401.883 236.734 406.439 220.919 405.844C205.104 405.25 189.91 399.534 177.623 389.559C165.297 379.445 156.534 365.649 152.618 350.192C148.702 334.736 149.839 318.434 155.862 303.671C156.625 301.849 157.015 299.892 157.007 297.917C157 295.941 156.595 293.987 155.818 292.17C155.041 290.354 153.907 288.712 152.483 287.342C151.06 285.972 149.375 284.903 147.531 284.197Z" fill="#0169B0"/>
<path fill-rule="evenodd" clip-rule="evenodd" d="M132.786 274.108C131.572 274.648 130.437 275.35 129.411 276.194L117.834 285.283L106.22 294.361L94.6014 303.503C91.5272 305.925 89.5409 309.468 89.0794 313.354C88.6178 317.241 89.7193 321.152 92.1408 324.226C94.5624 327.3 98.1047 329.283 101.991 329.745C105.877 330.207 109.787 329.106 112.862 326.684L124.439 317.595L136.03 308.465L147.649 299.322C150.491 297.126 152.434 293.964 153.112 290.436C153.791 286.908 153.16 283.254 151.335 280.159C149.511 277.064 146.62 274.741 143.204 273.626C139.789 272.512 136.085 272.684 132.786 274.108Z" fill="#0169B0"/>
<path fill-rule="evenodd" clip-rule="evenodd" d="M133.219 273.921C131.067 274.772 129.145 276.117 127.609 277.849C126.072 279.58 124.964 281.646 124.376 283.885C123.787 286.124 123.733 288.469 124.219 290.732C124.705 292.995 125.718 295.114 127.174 296.914L145.423 320.069L154.553 331.661C156.992 334.665 160.513 336.588 164.358 337.019C168.203 337.451 172.064 336.355 175.108 333.967C178.152 331.579 180.136 328.089 180.632 324.252C181.128 320.415 180.096 316.536 177.759 313.453L168.657 301.852L150.395 278.667C148.442 276.111 145.706 274.264 142.605 273.407C139.504 272.55 136.208 272.731 133.219 273.921Z" fill="#0169B0"/>
<path d="M449.281 405.115C452.891 406.622 455.755 409.501 457.243 413.119C458.73 416.736 458.72 420.797 457.214 424.407C448.995 445.07 434.393 462.568 415.535 474.353C396.677 486.138 374.548 491.591 352.374 489.923C330.28 488.096 309.368 479.179 292.755 464.499C276.142 449.82 264.717 430.165 260.184 408.464C259.783 406.567 259.759 404.607 260.115 402.701C260.471 400.794 261.2 398.979 262.258 397.354C263.316 395.729 264.683 394.328 266.283 393.231C267.883 392.135 269.682 391.362 271.579 390.961C273.476 390.56 275.434 390.538 277.341 390.893C279.247 391.249 281.065 391.977 282.69 393.035C284.315 394.093 285.716 395.461 286.812 397.06C287.909 398.66 288.679 400.459 289.08 402.357C292.245 417.848 300.355 431.896 312.19 442.381C324.025 452.867 338.944 459.223 354.705 460.497C370.606 461.699 386.474 457.78 399.988 449.313C413.502 440.847 423.951 428.279 429.807 413.447C430.514 411.602 431.583 409.917 432.953 408.493C434.323 407.07 435.964 405.936 437.781 405.159C439.597 404.382 441.551 403.977 443.526 403.97C445.502 403.962 447.459 404.352 449.281 405.115Z" fill="#0169B0"/>
<path fill-rule="evenodd" clip-rule="evenodd" d="M448.55 396.057C445.712 397.442 443.392 399.701 441.934 402.503C440.476 405.305 439.954 408.499 440.448 411.619L442.582 426.205L444.675 440.773L446.778 455.438C447.006 457.397 447.625 459.289 448.598 461.005C449.57 462.72 450.877 464.222 452.44 465.424C454.004 466.626 455.792 467.501 457.7 467.999C459.608 468.498 461.597 468.609 463.548 468.325C465.5 468.042 467.375 467.371 469.062 466.35C470.75 465.329 472.215 463.98 473.372 462.383C474.529 460.786 475.354 458.973 475.799 457.052C476.243 455.131 476.298 453.141 475.96 451.198L473.865 436.627L471.798 422.048L469.697 407.385C469.394 405.059 468.54 402.837 467.208 400.906C465.875 398.976 464.102 397.392 462.034 396.285C459.967 395.177 457.665 394.579 455.32 394.54C452.975 394.5 450.654 395.02 448.55 396.057Z" fill="#0169B0"/>
<path fill-rule="evenodd" clip-rule="evenodd" d="M404.756 402.216C401.522 403.699 398.933 406.3 397.466 409.542C395.999 412.783 395.753 416.445 396.773 419.853C397.794 423.262 400.013 426.187 403.02 428.089C406.026 429.991 409.618 430.739 413.135 430.201L427.744 428.122L456.949 423.939C460.824 423.378 464.318 421.302 466.662 418.166C469.006 415.03 470.008 411.092 469.448 407.217C468.888 403.342 466.812 399.849 463.676 397.505C460.54 395.161 456.6 394.157 452.726 394.717L423.56 398.919L408.936 401.035C407.492 401.22 406.084 401.619 404.756 402.216Z" fill="#0169B0"/>
<path d="M424.685 73.4327C422.165 74.6695 420.05 76.6008 418.589 78.9977C417.128 81.3945 416.381 84.1585 416.437 86.965C416.492 89.7716 417.346 92.5035 418.901 94.8411C420.455 97.1787 422.643 99.0228 425.21 100.16C456.642 114.531 471.46 150.514 458.672 182.424C445.482 215.341 408.132 231.163 374.635 217.739L311.441 192.506C299.465 187.679 286.428 186.093 273.644 187.91C260.86 189.727 248.781 194.884 238.624 202.857C228.468 210.83 220.592 221.339 215.791 233.326C210.991 245.313 209.435 258.354 211.281 271.134C215.022 297.128 232.423 319.2 256.781 328.962C258.586 329.722 260.525 330.115 262.483 330.118C264.442 330.12 266.382 329.735 268.19 328.981C269.997 328.226 271.636 327.118 273.01 325.723C274.385 324.328 275.468 322.673 276.197 320.855C276.925 319.037 277.285 317.093 277.254 315.134C277.223 313.176 276.801 311.242 276.015 309.448C275.229 307.654 274.094 306.035 272.675 304.685C271.257 303.334 269.584 302.282 267.754 301.585C260.564 298.73 254.255 294.028 249.464 287.954C244.673 281.88 241.569 274.647 240.468 266.989C239.366 259.332 240.305 251.519 243.19 244.341C246.074 237.163 250.802 230.874 256.896 226.108C262.97 221.341 270.19 218.253 277.833 217.151C285.475 216.049 293.273 216.972 300.446 219.829L363.651 245.09C411.775 264.352 466.86 241.235 486.041 193.37C504.608 146.922 482.787 94.0418 437.487 73.2823C435.484 72.3403 433.294 71.8599 431.08 71.8793C428.867 71.8987 426.687 72.4177 424.7 73.3946L424.685 73.4327Z" fill="#0169B0"/>
<path d="M429.416 96.7907C426.505 104.051 420.83 109.859 413.638 112.935C406.446 116.012 398.327 116.107 391.065 113.198C383.805 110.288 377.997 104.612 374.92 97.4205C371.844 90.2287 371.749 82.1093 374.658 74.8478C377.568 67.5872 383.244 61.7799 390.435 58.703C397.627 55.6261 405.747 55.5316 413.008 58.4402C420.269 61.3509 426.076 67.0263 429.153 74.218C432.23 81.4098 432.324 89.5292 429.416 96.7907Z" fill="#D9FAFF"/>
<path d="M418.502 44.7326C407.609 40.4421 395.464 40.6178 384.7 45.2229C373.937 49.8279 365.422 58.491 361.003 69.3324C356.698 80.2346 356.867 92.3934 361.478 103.17C366.089 113.947 374.767 122.47 385.626 126.884C408.11 135.939 434.12 124.811 443.125 102.284C447.423 91.3866 447.249 79.2322 442.641 68.4619C438.033 57.6917 429.352 49.1492 418.502 44.7326ZM407.542 72.139C415.288 75.2427 418.86 83.5938 415.745 91.3118C412.642 99.057 404.315 102.619 396.57 99.5156C388.825 96.412 385.252 88.0608 388.367 80.3428C391.471 72.5977 399.824 69.0237 407.542 72.139Z" fill="#0169B0"/>
<circle cx="367.032" cy="454.249" r="22.6539" fill="url(#paint2_radial_85_13)"/>
<circle cx="253.196" cy="196.561" r="28.8837" fill="url(#paint3_radial_85_13)"/>
<circle cx="98.5834" cy="325.122" r="43.0423" fill="url(#paint4_radial_85_13)"/>
</g>
<path d="M257.802 205.341V203.073C257.802 201.87 257.324 200.717 256.473 199.866C255.623 199.015 254.469 198.537 253.266 198.537H245.328C244.125 198.537 242.971 199.015 242.121 199.866C241.27 200.717 240.792 201.87 240.792 203.073V205.341" stroke="black" stroke-width="2" stroke-linecap="round" stroke-linejoin="round"/>
<path d="M249.297 194.001C251.802 194.001 253.833 191.971 253.833 189.465C253.833 186.96 251.802 184.929 249.297 184.929C246.792 184.929 244.761 186.96 244.761 189.465C244.761 191.971 246.792 194.001 249.297 194.001Z" stroke="black" stroke-width="2" stroke-linecap="round" stroke-linejoin="round"/>
<path d="M262.338 190.599V197.404" stroke="black" stroke-width="2" stroke-linecap="round" stroke-linejoin="round"/>
<path d="M265.741 194.001H258.936" stroke="black" stroke-width="2" stroke-linecap="round" stroke-linejoin="round"/>
<path d="M378.006 460.4V463.802C378.007 464.118 377.942 464.431 377.816 464.72C377.689 465.009 377.504 465.269 377.271 465.483C377.038 465.696 376.763 465.859 376.464 465.96C376.165 466.061 375.848 466.099 375.534 466.07C372.044 465.691 368.692 464.499 365.747 462.589C363.007 460.848 360.684 458.525 358.943 455.785C357.027 452.826 355.834 449.458 355.462 445.953C355.433 445.639 355.471 445.323 355.571 445.025C355.672 444.727 355.833 444.452 356.046 444.22C356.258 443.987 356.516 443.802 356.804 443.674C357.092 443.547 357.404 443.481 357.718 443.481H361.12C361.671 443.475 362.204 443.67 362.622 444.029C363.039 444.388 363.311 444.886 363.388 445.431C363.532 446.52 363.798 447.589 364.182 448.618C364.335 449.024 364.368 449.465 364.277 449.889C364.187 450.313 363.977 450.702 363.672 451.011L362.232 452.451C363.846 455.29 366.197 457.641 369.036 459.255L370.476 457.815C370.784 457.51 371.174 457.3 371.598 457.209C372.022 457.119 372.463 457.152 372.869 457.304C373.898 457.688 374.966 457.955 376.055 458.098C376.606 458.176 377.109 458.453 377.469 458.878C377.828 459.302 378.019 459.844 378.006 460.4Z" stroke="black" stroke-width="2" stroke-linecap="round" stroke-linejoin="round"/>
<path d="M111.516 330.081C111.516 330.883 111.198 331.652 110.631 332.22C110.064 332.787 109.294 333.105 108.492 333.105H90.3485L84.3005 339.153V314.961C84.3005 314.159 84.6191 313.39 85.1862 312.823C85.7533 312.256 86.5224 311.937 87.3245 311.937H108.492C109.294 311.937 110.064 312.256 110.631 312.823C111.198 313.39 111.516 314.159 111.516 314.961V330.081Z" stroke="black" stroke-width="2" stroke-linecap="round" stroke-linejoin="round"/>
<defs>
<filter id="filter0_d_85_13" x="-3.99847" y="0.00152588" width="627.611" height="630.611" filterUnits="userSpaceOnUse" color-interpolation-filters="sRGB">
<feFlood flood-opacity="0" result="BackgroundImageFix"/>
<feColorMatrix in="SourceAlpha" type="matrix" values="0 0 0 0 0 0 0 0 0 0 0 0 0 0 0 0 0 0 127 0" result="hardAlpha"/>
<feOffset dy="7"/>
<feGaussianBlur stdDeviation="2"/>
<feComposite in2="hardAlpha" operator="out"/>
<feColorMatrix type="matrix" values="0 0 0 0 1 0 0 0 0 1 0 0 0 0 1 0 0 0 0.1 0"/>
<feBlend mode="normal" in2="BackgroundImageFix" result="effect1_dropShadow_85_13"/>
<feBlend mode="normal" in="SourceGraphic" in2="effect1_dropShadow_85_13" result="shape"/>
</filter>
<radialGradient id="paint0_radial_85_13" cx="0" cy="0" r="1" gradientUnits="userSpaceOnUse" gradientTransform="translate(468.821 98.8417) rotate(31.2777) scale(29.0785)">
<stop offset="0.055" stop-color="#F0F0F0" stop-opacity="0.86"/>
<stop offset="0.39" stop-color="#45F4FF" stop-opacity="0.56"/>
<stop offset="1" stop-color="#57EAFE" stop-opacity="0.28"/>
</radialGradient>
<radialGradient id="paint1_radial_85_13" cx="0" cy="0" r="1" gradientUnits="userSpaceOnUse" gradientTransform="translate(334.392 295.88) rotate(31.2777) scale(34.1707)">
<stop offset="0.055" stop-color="#F0F0F0" stop-opacity="0.86"/>
<stop offset="0.39" stop-color="#45F4FF" stop-opacity="0.56"/>
<stop offset="1" stop-color="#57EAFE" stop-opacity="0.28"/>
</radialGradient>
<radialGradient id="paint2_radial_85_13" cx="0" cy="0" r="1" gradientUnits="userSpaceOnUse" gradientTransform="translate(360.481 447.698) rotate(31.2777) scale(34.1707)">
<stop offset="0.055" stop-color="#F0F0F0" stop-opacity="0.86"/>
<stop offset="0.39" stop-color="#45F4FF" stop-opacity="0.56"/>
<stop offset="1" stop-color="#57EAFE" stop-opacity="0.28"/>
</radialGradient>
<radialGradient id="paint3_radial_85_13" cx="0" cy="0" r="1" gradientUnits="userSpaceOnUse" gradientTransform="translate(244.844 188.209) rotate(31.2777) scale(43.5677)">
<stop offset="0.055" stop-color="#F0F0F0" stop-opacity="0.86"/>
<stop offset="0.39" stop-color="#45F4FF" stop-opacity="0.56"/>
<stop offset="1" stop-color="#57EAFE" stop-opacity="0.28"/>
</radialGradient>
<radialGradient id="paint4_radial_85_13" cx="0" cy="0" r="1" gradientUnits="userSpaceOnUse" gradientTransform="translate(86.1374 312.676) rotate(31.2777) scale(64.9244)">
<stop offset="0.055" stop-color="#F0F0F0"/>
<stop offset="0.39" stop-color="#45F4FF" stop-opacity="0.56"/>
<stop offset="1" stop-color="#57EAFE" stop-opacity="0.54"/>
</radialGradient>
</defs>
</svg>
