<svg width="20" height="26" viewBox="0 0 20 26" fill="none" xmlns="http://www.w3.org/2000/svg">
<path d="M18.75 14.3049H16.25C15.9185 14.3049 15.6005 14.4418 15.3661 14.6855C15.1317 14.9292 15 15.2597 15 15.6044C15 15.949 15.1317 16.2795 15.3661 16.5232C15.6005 16.7669 15.9185 16.9038 16.25 16.9038H17.3875C17.127 18.4975 16.3964 19.9677 15.2968 21.1107C14.1972 22.2538 12.7831 23.0133 11.25 23.2841V11.706H12.5C12.8315 11.706 13.1495 11.5691 13.3839 11.3254C13.6183 11.0817 13.75 10.7512 13.75 10.4066C13.75 10.0619 13.6183 9.73141 13.3839 9.48772C13.1495 9.24403 12.8315 9.10712 12.5 9.10712H11.25V7.57376C12.084 7.26723 12.7869 6.66406 13.2345 5.87086C13.6821 5.07766 13.8456 4.1455 13.696 3.23914C13.5464 2.33278 13.0934 1.51057 12.4171 0.917832C11.7407 0.325097 10.8846 0 10 0C9.11539 0 8.25926 0.325097 7.58293 0.917832C6.90659 1.51057 6.45359 2.33278 6.30401 3.23914C6.15442 4.1455 6.31786 5.07766 6.76546 5.87086C7.21306 6.66406 7.91598 7.26723 8.75 7.57376V9.10712H7.5C7.16848 9.10712 6.85054 9.24403 6.61612 9.48772C6.3817 9.73141 6.25 10.0619 6.25 10.4066C6.25 10.7512 6.3817 11.0817 6.61612 11.3254C6.85054 11.5691 7.16848 11.706 7.5 11.706H8.75V23.2841C7.21694 23.0133 5.80277 22.2538 4.7032 21.1107C3.60362 19.9677 2.87302 18.4975 2.6125 16.9038H3.75C4.08152 16.9038 4.39946 16.7669 4.63388 16.5232C4.8683 16.2795 5 15.949 5 15.6044C5 15.2597 4.8683 14.9292 4.63388 14.6855C4.39946 14.4418 4.08152 14.3049 3.75 14.3049H1.25C0.918479 14.3049 0.600537 14.4418 0.366117 14.6855C0.131696 14.9292 0 15.2597 0 15.6044C0 18.3615 1.05357 21.0056 2.92893 22.9552C4.8043 24.9048 7.34784 26 10 26C12.6522 26 15.1957 24.9048 17.0711 22.9552C18.9464 21.0056 20 18.3615 20 15.6044C20 15.2597 19.8683 14.9292 19.6339 14.6855C19.3995 14.4418 19.0815 14.3049 18.75 14.3049ZM10 5.20876C9.75277 5.20876 9.5111 5.13255 9.30554 4.98976C9.09998 4.84698 8.93976 4.64403 8.84515 4.40659C8.75054 4.16914 8.72579 3.90787 8.77402 3.6558C8.82225 3.40373 8.9413 3.17219 9.11612 2.99046C9.29093 2.80873 9.51366 2.68496 9.75614 2.63482C9.99861 2.58468 10.2499 2.61042 10.4784 2.70877C10.7068 2.80712 10.902 2.97368 11.0393 3.18737C11.1767 3.40107 11.25 3.6523 11.25 3.90931C11.25 4.25394 11.1183 4.58447 10.8839 4.82816C10.6495 5.07185 10.3315 5.20876 10 5.20876Z" fill="white"/>
</svg>
